# xmcd
#
# Track frame offsets:
#	150
#	14630
#	28826
#	42746
#	58887
#	73004
#	87940
#	100635
#	112403
#	129941
#	146120
#	156960
#	171963
#	181896
#	196785
#	206240
#	218786
#	231757
#	245725
#	258122
#	271724
#	289329
#	303981
#	317977
#	333019
#	343790
#
# Disc length: 4719
#
# Revision: 2
# Processed by: cddbd v1.5.1PL0 Copyright (c) Steve Scherf et al.
# Submitted via: VisiTrax 2.9.5.181 - For more info visit www.synapsa.com
# Normalized: r0:DSETVAR1,TDELIM( - ),TSWAP
#
DISCID=94126d1a
DTITLE=Various Artist - Country Music's Salute To Merle Haggard
DYEAR=1900
DGENRE=
TTITLE0=Noel Haggard - Tell Me Something Bad About Tulsa
TTITLE1=Johnny Rodriguiz - I Take A Lot Of Pride In What I Am
TTITLE2=Alan jackson - The Way I Am
TTITLE3=Waylon Jennings - Out Among The Stars
TTITLE4=Charley Pride - A Shoulder To ry On
TTITLE5=George Jones - I Must Have Done Something Bad
TTITLE6=Hank Snow - I Threw Away The Rose
TTITLE7=George Strait - My Life's Been Grand
TTITLE8=Waylon Jennings - The Last Letter (live)
TTITLE9=Redd Volkaert - (My Friends Are Gonna Be) Strangers
TTITLE10=Porter Wagner - Swinging Doors
TTITLE11=Alan Jackson - My Own Kind Of Hat
TTITLE12=Tanya Tucker - California Corronfields
TTITLE13=George Jones - I Always Get Lucky With You
TTITLE14=Waylon Jennings and Anita Carter - All Of Me Belongs To You
TTITLE15=Johnny Paycheck - You Don't Have Very Far To Go
TTITLE16=Faron Young - If We Make It Through December
TTITLE17=Charley Pride - (I'm A Lonesome) Fugitive
TTITLE18=Dean Martin - Little Ol' Wine Drinker Me
TTITLE19=Ferlin Husky - The Waltz You Saved For Me
TTITLE20=Billy Dean - Misery And Gin
TTITLE21=Black Hills Country Band - Ramblin' Fever
TTITLE22=George Jones and Willie Nelson - Half A Man
TTITLE23=Anne Murray - That's The Way Love Goes
TTITLE24=Porter Wagoner - The Bottle Let Me Down
TTITLE25=Randy Travis - Mama Tried
EXTD=
EXTT0=
EXTT1=
EXTT2=
EXTT3=
EXTT4=
EXTT5=
EXTT6=
EXTT7=
EXTT8=
EXTT9=
EXTT10=
EXTT11=
EXTT12=
EXTT13=
EXTT14=
EXTT15=
EXTT16=
EXTT17=
EXTT18=
EXTT19=
EXTT20=
EXTT21=
EXTT22=
EXTT23=
EXTT24=
EXTT25=
PLAYORDER=
